.
 
http://www.scenetime.com    -   SceneTime [ We been having it ] !!!


How come you press harder on a remote control when you know the battery is dead? so you better seed to get speed ;)

        Seed back for speed


...................................NFO:.................................................http://www.imdb.com/title/tt0168987/ 
http://en.wikipedia.org/wiki/Better_Than_Chocolate 
http://www.rottentomatoes.com/m/better_than_chocolate/

Mediainfo :
General
Complete name                    : Better.Than.Chocolate.1999.DVDRip.DivX-MEDiAMANiACS.avi
Format                           : AVI
Format/Info                      : Audio Video Interleave
File size                        : 700 MiB
Duration                         : 1h 40mn
Overall bit rate                 : 973 Kbps
Writing application              : Nandub v1.0rc2
Writing library                  : Nandub build 1852/release
Copyright                        : *MEDiAMANiACS*

Video
ID                               : 0
Format                           : MPEG-4 Visual
Codec ID                         : DIV3
Codec ID/Hint                    : DivX 3 Low
Duration                         : 1h 40mn
Bit rate                         : 821 Kbps
Width                            : 560 pixels
Height                           : 304 pixels
Display aspect ratio             : 16:9
Frame rate                       : 23.976 fps
Color space                      : YUV
Chroma subsampling               : 4:2:0
Bit depth                        : 8 bits
Compression mode                 : Lossy
Bits/(Pixel*Frame)               : 0.201
Stream size                      : 591 MiB (84%)

Audio
ID                               : 1
Format                           : MPEG Audio
Format version                   : Version 1
Format profile                   : Layer 3
Mode                             : Joint stereo
Codec ID                         : 55
Codec ID/Hint                    : MP3
Duration                         : 1h 40mn
Bit rate mode                    : Variable
Bit rate                         : 139 Kbps
Channel(s)                       : 2 channels
Sampling rate                    : 48.0 KHz
Compression mode                 : Lossy
Stream size                      : 100 MiB (14%)
Alignment                        : Aligned on interleaves
Interleave, duration             : 24 ms (0.58 video frame)
Interleave, preload duration     : 110 ms
Writing library                  : LAME3.90 (alpha)